# xmcd
#
# Track frame offsets: 
#        150
#        19716
#        54786
#        81330
#        94763
#        105913
#        132565
#
# Disc length: 2508 seconds
#
# Revision: 0
# Processed by: cddbd v1.5.2PL0 Copyright (c) Steve Scherf et al.
# Submitted via: ExactAudioCopy v1.1
#
DISCID=4c09ca07
DTITLE=Freddy Mack - Fantastic Freddy Mack Show Live At Toft's 1966
DYEAR=1966
DGENRE=Soul
TTITLE0=Bare Footin'
TTITLE1=Funky Broadway
TTITLE2=Sock It To 'Em JB
TTITLE3=Long Tall Sally
TTITLE4=Three Time Loser
TTITLE5=Stand By Me
TTITLE6=Finale
EXTD=
EXTT0=
EXTT1=
EXTT2=
EXTT3=
EXTT4=
EXTT5=
EXTT6=
PLAYORDER=
